<?xml version="1.0" encoding="utf-8"?>
<!-- Generator: Adobe Illustrator 18.1.1, SVG Export Plug-In . SVG Version: 6.00 Build 0)  -->
<!DOCTYPE svg PUBLIC "-//W3C//DTD SVG 1.1//EN" "http://www.w3.org/Graphics/SVG/1.1/DTD/svg11.dtd">
<svg version="1.1" xmlns="http://www.w3.org/2000/svg" xmlns:xlink="http://www.w3.org/1999/xlink" x="0px" y="0px"
	 viewBox="0 0 631.8 173.8" enable-background="new 0 0 631.8 173.8" xml:space="preserve">
<g id="Layer_1">
	<path d="M419.6,102.4"/>
	<g>
		<polygon fill="#FFFFFF" points="95.7,145.3 115.3,115.4 85.5,115.4 90.4,121.6 104,121.6 95.4,134.7 58.9,88.7 15.4,155.9 
			84.8,155.9 79.8,149.6 27.4,149.5 59.4,99.3 		"/>
		<polygon fill="#FFFFFF" points="78.5,89.2 97.6,59.3 114.3,84.4 117.9,78.6 97.7,47.8 74.3,83.9 		"/>
		<polygon fill="#FFFFFF" points="126.4,73.2 109.4,100.2 116.5,100.2 126.3,85 167.4,149.6 118.1,149.7 136.8,120.6 152,145.2 
			159.5,145.3 137,109.2 106.5,155.9 178.7,155.9 		"/>
		<polygon fill="#FFFFFF" points="85.7,105 69.1,84.3 97.7,39.5 120.2,74.8 123.7,69.2 98,27.5 61.4,84.8 82.2,111.2 123.2,111.2 
			95.9,152.7 59.6,106.8 35.2,145.2 76.4,145.2 71.4,139.2 46.4,139.1 60,117.9 89.9,155.9 101.5,155.9 134.8,105 		"/>
	</g>
	<g>
		<g>
			<path fill="#FFFFFF" d="M214.3,151.4h-2.7v-27.3h2.7V151.4z"/>
			<path fill="#FFFFFF" d="M258.9,151.4c-5-8.5-10.1-16.4-13.6-23.3h-0.1l0.2,9.9v13.4h-2.6v-27.3h3c4.6,7.8,10.1,16.4,13.5,23.3
				h0.1l-0.2-10.1v-13.2h2.6l0,27.3H258.9z"/>
			<path fill="#FFFFFF" d="M305.2,151.4c-5-8.5-10.1-16.4-13.6-23.3h-0.1l0.2,9.9v13.4h-2.6v-27.3h3c4.6,7.8,10.1,16.4,13.5,23.3
				h0.1l-0.2-10.1v-13.2h2.6v27.3H305.2z"/>
			<path fill="#FFFFFF" d="M335.6,138.3c0-8.4,4.4-14.3,11.6-14.3s11.5,5.9,11.5,14.2c0,8.3-4.4,13.9-11.5,13.9
				C340,152.2,335.6,146.5,335.6,138.3z M355.7,138.2c0-6.1-2.4-11.9-8.6-11.9s-8.7,5.8-8.7,11.9c0,6,2.7,11.7,8.7,11.7
				C353.1,149.9,355.7,144.3,355.7,138.2z"/>
			<path fill="#FFFFFF" d="M392.2,151.4l-8.8-27.3h3l4.8,15.3l2.6,9.1h0.1l2.6-9.1l4.8-15.3h2.9l-8.8,27.3H392.2z"/>
			<path fill="#FFFFFF" d="M446.8,151.4h-2.9l-2.9-8.8h-9.8c-0.1,0.3-2.8,8.5-2.9,8.8h-2.8l9.1-27.3h3.1L446.8,151.4z M436.1,126.6
				l-1.5,4.9l-2.8,8.9h8.5l-2.8-8.9L436.1,126.6L436.1,126.6z"/>
			<path fill="#FFFFFF" d="M469.3,126.4l0.2-2.3H488l-0.2,2.3H480v25h-2.8v-25H469.3z"/>
			<path fill="#FFFFFF" d="M515.3,151.4h-2.7v-27.3h2.7V151.4z"/>
			<path fill="#FFFFFF" d="M541.4,137.9c0-8.4,4.4-14.3,11.5-14.3c7.1,0,11.5,5.9,11.5,14.2c0,8.3-4.4,13.9-11.5,13.9
				C545.9,151.8,541.4,146.1,541.4,137.9z M561.6,137.8c0-6.1-2.4-11.9-8.6-11.9c-6.2,0-8.7,5.8-8.7,11.9c0,6,2.7,11.7,8.7,11.7
				C558.9,149.6,561.6,143.9,561.6,137.8z"/>
			<path fill="#FFFFFF" d="M606.7,151.4c-5-8.5-10.1-16.4-13.6-23.3H593l0.2,9.9v13.4h-2.6v-27.3h3c4.6,7.8,10.1,16.4,13.5,23.3h0.1
				l-0.2-10.1v-13.2h2.6v27.3H606.7z"/>
		</g>
		<path fill="#FFFFFF" d="M410.6,101.6"/>
		<g>
			<g>
				<path fill="#FFFFFF" d="M555.4,48.5c-4.2-3-9.5-4-13.7-4c-6.1,0-10.5,2.1-10.5,9.2c0,13.7,30,8.5,30,30.2c0,6.3-2.9,11-6.8,13.7
					c-3.7,2.5-8.9,4.1-14.3,4.1c-6,0-13.9-1.9-18.2-6.3l4.3-6.1c4.3,3.6,9.9,5,15.2,5c6.1,0,11.3-1.8,11.3-9.9
					c0-15-29.9-9.2-29.9-30.4c0-5.7,2.3-9.4,5.8-12.1c4-3.1,8.9-4.5,14.4-4.5c5.3,0,12.1,1.4,16.4,5.1L555.4,48.5z"/>
				<path fill="#FFFFFF" d="M540.2,102.3c-5.6,0-13.9-1.7-18.6-6.5l-0.3-0.3l4.8-6.9l0.4,0.4c4.8,4,10.7,4.8,14.9,4.8
					c7.5,0,10.8-2.9,10.8-9.4c0-6.5-5.9-8.9-12.7-11.6c-8.1-3.3-17.2-6.9-17.2-18.8c0-5.3,2-9.4,6-12.5c4-3.1,9-4.6,14.7-4.6
					c5.1,0,12.1,1.4,16.8,5.2l0.3,0.3l-4.5,6.9l-0.4-0.3c-3.5-2.5-8.4-3.9-13.4-3.9c-6.9,0-10,2.8-10,8.7c0,5.7,5.6,8,12.1,10.6
					c8.4,3.4,17.9,7.2,17.9,19.6c0,5.9-2.6,11.1-7,14.1C551,100.8,545.5,102.3,540.2,102.3z M522.6,95.4c4.6,4.3,12.3,5.9,17.6,5.9
					c5.2,0,10.4-1.5,14-4c4.2-2.9,6.6-7.6,6.6-13.3c0-11.8-9.2-15.5-17.3-18.7c-6.6-2.6-12.8-5.1-12.8-11.5c0-6.5,3.6-9.7,11-9.7
					c3,0,8.6,0.5,13.5,3.8l3.5-5.3c-4.4-3.4-11-4.7-15.8-4.7c-5.5,0-10.2,1.5-14.1,4.4c-3.8,3-5.6,6.7-5.6,11.7
					c0,11.2,8.4,14.6,16.6,17.9c6.9,2.8,13.3,5.4,13.3,12.6c0,9.3-6.8,10.4-11.8,10.4c-4.2,0-10.2-0.8-15.1-4.7L522.6,95.4z"/>
			</g>
			<g>
				<path fill="#FFFFFF" d="M242.2,48.7c-4.2-3-9.5-4-13.7-4c-6.1,0-10.5,2.1-10.5,9.2c0,13.7,30,8.5,30,30.1c0,6.3-2.9,11-6.8,13.7
					c-3.7,2.5-8.9,4-14.3,4c-6,0-13.9-1.9-18.3-6.3l4.3-6.1c4.3,3.6,9.9,4.9,15.2,4.9c6.1,0,11.3-1.8,11.3-9.9
					c0-14.9-29.9-9.2-29.9-30.3c0-5.7,2.3-9.4,5.8-12.1c4-3.1,8.9-4.8,14.4-4.8c5.3,0,12.1,1.7,16.4,5.3L242.2,48.7z"/>
				<path fill="#FFFFFF" d="M227,102.3c-5.6,0-13.9-1.7-18.6-6.4l-0.3-0.3l4.8-6.9l0.4,0.4c4.8,4,10.7,4.8,14.9,4.8
					c7.5,0,10.8-2.9,10.8-9.4c0-6.5-5.9-8.8-12.7-11.6c-8.1-3.2-17.2-6.9-17.2-18.7c0-5.2,2-9.3,6-12.5c4.2-3.2,9.3-4.9,14.7-4.9
					c4.7,0,11.9,1.4,16.7,5.4l0.3,0.3l-4.6,6.9l-0.4-0.3c-3.5-2.5-8.4-3.9-13.4-3.9c-6.9,0-10,2.8-10,8.7c0,5.7,5.6,8,12.1,10.6
					c8.4,3.4,17.9,7.2,17.9,19.6c0,5.9-2.6,11-7,14.1C237.7,100.8,232.4,102.3,227,102.3z M209.4,95.4c4.3,4,11.9,5.9,17.6,5.9
					c5.1,0,10.4-1.5,14-4c4.2-2.9,6.6-7.6,6.6-13.3c0-11.7-9.2-15.4-17.3-18.6c-6.6-2.6-12.8-5.1-12.8-11.5c0-6.5,3.6-9.7,11-9.7
					c3,0,8.6,0.5,13.5,3.8l3.5-5.3c-4.6-3.6-11.4-4.9-15.8-4.9c-5.2,0-10.1,1.6-14.1,4.7c-3.8,3-5.6,6.7-5.6,11.7
					c0,11.1,8.4,14.5,16.6,17.8c6.9,2.8,13.3,5.4,13.3,12.5c0,9.3-6.8,10.4-11.8,10.4c-4.2,0-10.2-0.8-15.1-4.7L209.4,95.4z"/>
			</g>
			<g>
				<path fill="#FFFFFF" d="M299.5,38.1h-44.4v0.1v7.2v0.4h18l0,55.9h9.7l-0.1-55.9h16.8V38.1L299.5,38.1
					C299.5,38.2,299.5,38.1,299.5,38.1z"/>
				<path fill="#FFFFFF" d="M283.3,102.2h-10.7l0-55.9h-18v-8.6l0.5-0.1h45.1l-0.2,0.6v8.1h-16.8L283.3,102.2z M273.6,101.2h8.7
					l-0.1-55.9H299v-6.6h-0.2l0-0.1h-43.2v6.7h18L273.6,101.2z"/>
			</g>
			<g>
				<path fill="#FFFFFF" d="M612.4,38.1H568v7.3v0.4h18l0,56h9.7l-0.1-56h16.8C612.4,45.8,612.4,38.1,612.4,38.1z"/>
				<path fill="#FFFFFF" d="M596.2,102.3h-10.7l0-56h-18v-8.7h45.6l-0.2,0.6c0,0.6,0,4.8,0,7.6l0,0.5h-16.8L596.2,102.3z
					 M586.5,101.3h8.7l-0.1-56h16.8c0-4.1,0-5.9,0-6.7h-43.4v6.7h18L586.5,101.3z"/>
			</g>
			<g>
				<g>
					<polygon fill="#FFFFFF" points="317.2,93.5 317.2,73.2 337.1,73.2 339.7,65.2 317.2,65.2 317.2,45.5 346.2,45.5 348.7,38.1 
						308.3,38.1 308.3,101.8 327.6,101.8 330.3,93.5 					"/>
					<path fill="#FFFFFF" d="M328,102.3h-20.2V37.6h41.6l-2.8,8.4h-28.9v18.7h22.7l-3,9h-19.7V93H331L328,102.3z M308.8,101.3h18.5
						l2.4-7.3h-12.9V72.7h20l2.3-7h-22.3V45h29.1l2.1-6.4h-39.2V101.3z"/>
				</g>
			</g>
			<g>
				<polygon fill="#FFFFFF" points="368.3,38.1 357.8,38.1 336.8,101.8 345.7,101.8 351.5,83.3 365.4,83.4 367.4,75.4 354,75.4 
					363,46.9 379.9,101.8 389.1,101.8 				"/>
				<path fill="#FFFFFF" d="M389.8,102.3h-10.3L363,48.5l-8.3,26.3h13.4l-2.3,9l-13.9-0.1l-5.9,18.5h-9.9l21.4-64.7h11.2l0.1,0.3
					L389.8,102.3z M380.3,101.3h8.2L368,38.6h-9.8l-20.7,62.7h7.8l5.9-18.5l13.9,0.1l1.8-7h-13.4l9.6-30.7L380.3,101.3z"/>
			</g>
			<g>
				<polygon fill="#FFFFFF" points="496.7,38.1 486.3,38.1 465.3,101.8 474.1,101.8 479.7,84.2 493.4,84.3 495.4,76.3 482.2,76.3 
					491.4,47 508.5,101.8 517.7,101.8 				"/>
				<path fill="#FFFFFF" d="M518.4,102.3h-10.2l-16.7-53.7l-8.5,27.1h13.2l-2.3,9l-13.7-0.1l-5.6,17.6h-9.9L486,37.6h11.1l0.1,0.3
					L518.4,102.3z M508.9,101.3h8.1l-20.6-62.7h-9.7L466,101.3h7.7l5.6-17.6l13.7,0.1l1.8-7h-13.3l9.9-31.5L508.9,101.3z"/>
			</g>
			<g>
				<path fill="#FFFFFF" d="M431.1,44c-3.8-3.8-9.5-5.9-17.9-5.9h-8.5h-0.2h-8.9l-0.1,63.7h8.6h0.4h8.8c8,0,13.6-2.3,17.5-6.1
					c6.1-6.1,7.1-15.6,7.1-26C437.9,57.6,436.5,49.3,431.1,44z M424.8,89.7c-2.6,2.9-6.4,3.9-11.9,3.9h-8.5v-48h8.5
					c5.6,0,9.4,1.4,11.9,4c3.1,3.5,4.4,9.6,4.4,20.5C429.2,80.7,428,86.2,424.8,89.7z"/>
				<path fill="#FFFFFF" d="M413.3,102.3H395l0.1-64.7h18c8.2,0,14.2,2,18.3,6.1c5.8,5.6,7,14.5,7,26c0,9.9-0.9,19.9-7.3,26.3
					C427,100.2,421.1,102.3,413.3,102.3z M396,101.3h17.3c7.5,0,13.1-2,17.1-6c6.2-6.2,7-16,7-25.6c0-11.3-1.1-19.9-6.7-25.3
					c-3.9-3.9-9.7-5.8-17.6-5.8h-17L396,101.3z M412.9,94.1h-9v-49h9c5.7,0,9.6,1.3,12.2,4.2c3.2,3.6,4.5,9.6,4.5,20.9
					c0,10.9-1.2,16.3-4.5,19.9C422.6,92.9,418.8,94.1,412.9,94.1z M405,93.1h8c5.6,0,9.2-1.2,11.5-3.7c3.1-3.3,4.3-8.7,4.3-19.2
					c0-10.8-1.3-16.9-4.3-20.2c-2.5-2.6-6.1-3.9-11.5-3.9h-8V93.1z"/>
			</g>
			<g>
				<polygon fill="#FFFFFF" points="474.8,46.6 477.3,38.1 446.9,38.1 446.9,98.9 446.9,101.5 446.9,101.8 456.1,101.8 456.1,101.5 
					456.1,72.8 465.6,72.8 468.1,66 456.1,66 456.1,46.6 				"/>
				<path fill="#FFFFFF" d="M456.6,102.3h-10.2V37.6H478l-2.8,9.5h-18.6v18.4h12.2l-2.9,7.8h-9.3L456.6,102.3z M447.4,101.3h8.2
					l0.1-29h9.6l2.1-5.8h-11.7V46.1h18.8l2.2-7.5h-29.3V101.3z"/>
			</g>
		</g>
	</g>
</g>
<g id="Layer_2" display="none">
</g>
</svg>
